# xmcd CD database file
#
# Track frame offsets:
#	150
#	10996
#	22172
#	35138
#	45773
#	56740
#	66815
#	79726
#	95714
#	103597
#
# Disc length: 1537 seconds
#
# Revision: 0
# Processed by: cddbd v1.5.1PL2 Copyright (c) Steve Scherf et al.
# Submitted via: CDex 1.70beta2
#
DISCID=8005ff0a
DTITLE=Various Artist - That's Country - Greatest Hits
DYEAR=2004
DGENRE=Country
TTITLE0=Carl Smith - Hey Joe
TTITLE1=Kitty Wells - It Wasn't God Who Make Honky Tonk Angels
TTITLE2=Ray Price - City Lights
TTITLE3=Ferlin Husky - Gone
TTITLE4=Don Gibson - Oh Lonesome Me
TTITLE5=Faron Young - Hello Walls
TTITLE6=Carl and Pearl Butler - Don't Let Me Cross Over
TTITLE7=Bill Anderson - Mama Sang a Song
TTITLE8=Roger Miller - Dang Me
TTITLE9=Jack Greene - There Goes My Everything
EXTD=YEAR: 2004
EXTT0=
EXTT1=
EXTT2=
EXTT3=
EXTT4=
EXTT5=
EXTT6=
EXTT7=
EXTT8=
EXTT9=
PLAYORDER=
